# MagicaVoxel @ Ephtracy

# group
o 

# material
mtllib BowPull2.mtl
usemtl palette

# normals
vn -1 0 0
vn 1 0 0
vn 0 0 1
vn 0 0 -1
vn 0 -1 0
vn 0 1 0

# texcoords
vt 0.142578 0.5
vt 0.224609 0.5
vt 0.259766 0.5

# verts
v -0.1 0.1 0.4
v -0.1 0.1 0.2
v -0.1 0.2 0.5
v -0.1 0.2 0.4
v -0.1 0.2 0.3
v -0.1 0.2 0.2
v -0.1 0.3 0.4
v -0.1 0.3 0.3
v -0.1 0.5 0.5
v -0.1 0.5 0.4
v -0.1 0.8 0.5
v -0.1 0.8 0.4
v -0.1 0.9 0.5
v -0.1 0.9 0.4
v 0 0 0.3
v 0 0 0.2
v 0 0 0.1
v 0 0.1 0.3
v 0 0.1 0.2
v 0 0.1 0.1
v 0 0.1 0
v 0 0.2 0.1
v 0 0.2 0
v 0 0.2 -0.1
v 0 0.3 0.4
v 0 0.3 0.3
v 0 0.4 0.4
v 0 0.4 0.3
v 0 0.5 0.5
v 0 0.5 0.4
v 0 0.6 0.5
v 0 0.6 0.4
v 0 0.7 0.5
v 0 0.7 0.4
v 0 0.8 0.5
v 0 0.8 0.4
v 0 0.9 0.4
v 0 0.9 0.3
v 0 1.1 0.4
v 0 1.1 0.3
v 0 1.1 0.2
v 0 1.1 0.1
v 0 1.1 0
v 0 1.1 -0.1
v 0 1.2 0.3
v 0 1.2 0.2
v 0 1.2 0.1
v 0 1.2 0
v 0 1.3 0.3
v 0 1.3 0.2
v 0 1.3 0.1
v 0.1 0.1 0.4
v 0.1 0.1 0.3
v 0.1 0.2 0.5
v 0.1 0.2 0.4
v 0.1 0.2 0.3
v 0.1 0.4 0.5
v 0.1 0.4 0.4
v 0.1 0.6 0.5
v 0.1 0.6 0.4
v 0.1 0.7 0.5
v 0.1 0.7 0.4
v 0.1 0.9 0.5
v 0.1 0.9 0.4
v 0.1 1.1 0.5
v 0.1 1.1 0.4
v 0.1 1.1 0.3
v 0.1 1.2 0.4
v 0.1 1.2 0.3
v 0 0.1 0.4
v 0 0.1 0.3
v 0 0.2 0.5
v 0 0.2 0.4
v 0 0.2 0.3
v 0 0.4 0.5
v 0 0.4 0.4
v 0.1 0 0.3
v 0.1 0 0.2
v 0.1 0 0.1
v 0.1 0.1 0.3
v 0.1 0.1 0.2
v 0.1 0.1 0.1
v 0.1 0.1 0
v 0.1 0.2 0.1
v 0.1 0.2 0
v 0.1 0.2 -0.1
v 0.1 0.3 0.4
v 0.1 0.3 0.3
v 0.1 0.4 0.4
v 0.1 0.4 0.3
v 0.1 0.9 0.4
v 0.1 0.9 0.3
v 0.1 1 0.4
v 0.1 1 0.3
v 0.1 1.1 0.1
v 0.1 1.1 0
v 0.1 1.1 -0.1
v 0.1 1.2 0.3
v 0.1 1.2 0.2
v 0.1 1.2 0.1
v 0.1 1.2 0
v 0.1 1.3 0.3
v 0.1 1.3 0.2
v 0.1 1.3 0.1
v 0.2 0.1 0.4
v 0.2 0.1 0.2
v 0.2 0.2 0.5
v 0.2 0.2 0.4
v 0.2 0.2 0.3
v 0.2 0.2 0.2
v 0.2 0.3 0.4
v 0.2 0.3 0.3
v 0.2 1 0.4
v 0.2 1 0.3
v 0.2 1.1 0.5
v 0.2 1.1 0.4
v 0.2 1.1 0.3
v 0.2 1.1 0.2
v 0.2 1.2 0.4
v 0.2 1.2 0.2
v -0.1 0.2 0.5
v -0.1 0.5 0.5
v -0.1 0.8 0.5
v -0.1 0.9 0.5
v 0 0.2 0.5
v 0 0.4 0.5
v 0 0.5 0.5
v 0 0.6 0.5
v 0 0.7 0.5
v 0 0.8 0.5
v 0.1 0.2 0.5
v 0.1 0.4 0.5
v 0.1 0.5 0.5
v 0.1 0.6 0.5
v 0.1 0.7 0.5
v 0.1 0.8 0.5
v 0.1 0.9 0.5
v 0.1 1.1 0.5
v 0.2 0.2 0.5
v 0.2 1.1 0.5
v -0.1 0.1 0.4
v -0.1 0.2 0.4
v 0 0.1 0.4
v 0 0.2 0.4
v 0 0.4 0.4
v 0 0.9 0.4
v 0 1.1 0.4
v 0.1 0.1 0.4
v 0.1 0.2 0.4
v 0.1 0.4 0.4
v 0.1 0.9 0.4
v 0.1 1.1 0.4
v 0.1 1.2 0.4
v 0.2 0.1 0.4
v 0.2 0.2 0.4
v 0.2 1.1 0.4
v 0.2 1.2 0.4
v 0 0 0.3
v 0 0.1 0.3
v 0 0.2 0.3
v 0 1.1 0.3
v 0 1.2 0.3
v 0 1.3 0.3
v 0.1 0 0.3
v 0.1 0.1 0.3
v 0.1 0.2 0.3
v 0.1 1.1 0.3
v 0.1 1.2 0.3
v 0.1 1.3 0.3
v 0 0.1 0.1
v 0 0.2 0.1
v 0 1.1 0.1
v 0 1.2 0.1
v 0.1 0.1 0.1
v 0.1 0.2 0.1
v 0.1 1.1 0.1
v 0.1 1.2 0.1
v 0 0.2 0
v 0 1.1 0
v 0.1 0.2 0
v 0.1 1.1 0
v -0.1 0.3 0.4
v -0.1 0.5 0.4
v -0.1 0.8 0.4
v -0.1 0.9 0.4
v 0 0.3 0.4
v 0 0.4 0.4
v 0 0.5 0.4
v 0 0.6 0.4
v 0 0.7 0.4
v 0 0.8 0.4
v 0 0.9 0.4
v 0.1 0.3 0.4
v 0.1 0.4 0.4
v 0.1 0.5 0.4
v 0.1 0.6 0.4
v 0.1 0.7 0.4
v 0.1 0.8 0.4
v 0.1 0.9 0.4
v 0.1 1 0.4
v 0.2 0.3 0.4
v 0.2 1 0.4
v -0.1 0.2 0.3
v -0.1 0.3 0.3
v 0 0.3 0.3
v 0 0.4 0.3
v 0 0.9 0.3
v 0 1.1 0.3
v 0.1 0.3 0.3
v 0.1 0.4 0.3
v 0.1 0.9 0.3
v 0.1 1 0.3
v 0.2 0.2 0.3
v 0.2 0.3 0.3
v 0.2 1 0.3
v 0.2 1.1 0.3
v -0.1 0.1 0.2
v -0.1 0.2 0.2
v 0 0.1 0.2
v 0 1.1 0.2
v 0 1.2 0.2
v 0.1 0.1 0.2
v 0.1 1.2 0.2
v 0.2 0.1 0.2
v 0.2 0.2 0.2
v 0.2 1.1 0.2
v 0.2 1.2 0.2
v 0 0 0.1
v 0 0.1 0.1
v 0 1.2 0.1
v 0 1.3 0.1
v 0.1 0 0.1
v 0.1 0.1 0.1
v 0.1 1.2 0.1
v 0.1 1.3 0.1
v 0 0.1 0
v 0 0.2 0
v 0 1.1 0
v 0 1.2 0
v 0.1 0.1 0
v 0.1 0.2 0
v 0.1 1.1 0
v 0.1 1.2 0
v 0 0.2 -0.1
v 0 1.1 -0.1
v 0.1 0.2 -0.1
v 0.1 1.1 -0.1
v 0 0 0.3
v 0.1 0 0.3
v 0 0 0.2
v 0.1 0 0.2
v 0 0 0.1
v 0.1 0 0.1
v -0.1 0.1 0.4
v 0 0.1 0.4
v 0.1 0.1 0.4
v 0.2 0.1 0.4
v 0 0.1 0.3
v 0.1 0.1 0.3
v -0.1 0.1 0.2
v 0 0.1 0.2
v 0.1 0.1 0.2
v 0.2 0.1 0.2
v 0 0.1 0.1
v 0.1 0.1 0.1
v 0 0.1 0
v 0.1 0.1 0
v -0.1 0.2 0.5
v 0 0.2 0.5
v 0.1 0.2 0.5
v 0.2 0.2 0.5
v -0.1 0.2 0.4
v 0 0.2 0.4
v 0.1 0.2 0.4
v 0.2 0.2 0.4
v 0 0.2 0.3
v 0.1 0.2 0.3
v 0 0.2 0
v 0.1 0.2 0
v 0 0.2 -0.1
v 0.1 0.2 -0.1
v 0 0.4 0.5
v 0.1 0.4 0.5
v 0 0.4 0.4
v 0.1 0.4 0.4
v 0 0.7 0.5
v 0.1 0.7 0.5
v 0 0.7 0.4
v 0.1 0.7 0.4
v -0.1 0.8 0.5
v 0 0.8 0.5
v -0.1 0.8 0.4
v 0 0.8 0.4
v 0 0.9 0.4
v 0.1 0.9 0.4
v 0 0.9 0.3
v 0.1 0.9 0.3
v 0.1 1 0.4
v 0.2 1 0.4
v 0.1 1 0.3
v 0.2 1 0.3
v 0 1.1 0.3
v 0.2 1.1 0.3
v 0 1.1 0.2
v 0.2 1.1 0.2
v 0 1.1 0.1
v 0.1 1.1 0.1
v 0 1.1 0
v 0.1 1.1 0
v 0 1.2 0.2
v 0.1 1.2 0.2
v 0 1.2 0.1
v 0.1 1.2 0.1
v 0 0.1 0.2
v 0.1 0.1 0.2
v 0 0.1 0.1
v 0.1 0.1 0.1
v -0.1 0.2 0.3
v 0.2 0.2 0.3
v -0.1 0.2 0.2
v 0.2 0.2 0.2
v 0 0.2 0.1
v 0.1 0.2 0.1
v 0 0.2 0
v 0.1 0.2 0
v -0.1 0.3 0.4
v 0 0.3 0.4
v 0.1 0.3 0.4
v 0.2 0.3 0.4
v -0.1 0.3 0.3
v 0 0.3 0.3
v 0.1 0.3 0.3
v 0.2 0.3 0.3
v 0 0.4 0.4
v 0.1 0.4 0.4
v 0 0.4 0.3
v 0.1 0.4 0.3
v -0.1 0.5 0.5
v 0 0.5 0.5
v -0.1 0.5 0.4
v 0 0.5 0.4
v 0 0.6 0.5
v 0.1 0.6 0.5
v 0 0.6 0.4
v 0.1 0.6 0.4
v -0.1 0.9 0.5
v 0.1 0.9 0.5
v -0.1 0.9 0.4
v 0 0.9 0.4
v 0.1 0.9 0.4
v 0.1 1.1 0.5
v 0.2 1.1 0.5
v 0 1.1 0.4
v 0.1 1.1 0.4
v 0.2 1.1 0.4
v 0 1.1 0.3
v 0.1 1.1 0.3
v 0 1.1 0
v 0.1 1.1 0
v 0 1.1 -0.1
v 0.1 1.1 -0.1
v 0.1 1.2 0.4
v 0.2 1.2 0.4
v 0.1 1.2 0.3
v 0.1 1.2 0.2
v 0.2 1.2 0.2
v 0 1.2 0.1
v 0.1 1.2 0.1
v 0 1.2 0
v 0.1 1.2 0
v 0 1.3 0.3
v 0.1 1.3 0.3
v 0 1.3 0.2
v 0.1 1.3 0.2
v 0 1.3 0.1
v 0.1 1.3 0.1

# faces
f 4/1/1 2/1/1 1/1/1
f 5/1/1 2/1/1 4/1/1
f 6/1/1 2/1/1 5/1/1
f 7/1/1 4/1/1 3/1/1
f 7/1/1 5/1/1 4/1/1
f 8/1/1 5/1/1 7/1/1
f 9/1/1 7/1/1 3/1/1
f 10/1/1 7/1/1 9/1/1
f 13/1/1 12/1/1 11/1/1
f 14/1/1 12/1/1 13/1/1
f 18/2/1 16/2/1 15/2/1
f 19/3/1 17/3/1 16/3/1
f 19/2/1 16/2/1 18/2/1
f 20/3/1 17/3/1 19/3/1
f 22/3/1 21/3/1 20/3/1
f 23/3/1 21/3/1 22/3/1
f 27/1/1 26/1/1 25/1/1
f 28/1/1 26/1/1 27/1/1
f 31/2/1 30/2/1 29/2/1
f 32/2/1 30/2/1 31/2/1
f 35/2/1 34/2/1 33/2/1
f 36/2/1 34/2/1 35/2/1
f 39/1/1 38/1/1 37/1/1
f 40/1/1 38/1/1 39/1/1
f 43/3/1 24/3/1 23/3/1
f 44/3/1 24/3/1 43/3/1
f 45/1/1 41/1/1 40/1/1
f 46/1/1 41/1/1 45/1/1
f 47/3/1 43/3/1 42/3/1
f 48/3/1 43/3/1 47/3/1
f 49/2/1 46/2/1 45/2/1
f 50/3/1 47/3/1 46/3/1
f 50/2/1 46/2/1 49/2/1
f 51/3/1 47/3/1 50/3/1
f 55/1/1 53/1/1 52/1/1
f 56/1/1 53/1/1 55/1/1
f 57/1/1 55/1/1 54/1/1
f 58/1/1 55/1/1 57/1/1
f 61/1/1 60/1/1 59/1/1
f 62/1/1 60/1/1 61/1/1
f 65/1/1 64/1/1 63/1/1
f 66/1/1 64/1/1 65/1/1
f 68/1/1 67/1/1 66/1/1
f 69/1/1 67/1/1 68/1/1
f 70/1/2 71/1/2 73/1/2
f 73/1/2 71/1/2 74/1/2
f 72/1/2 73/1/2 75/1/2
f 75/1/2 73/1/2 76/1/2
f 77/2/2 78/2/2 80/2/2
f 78/3/2 79/3/2 81/3/2
f 80/2/2 78/2/2 81/2/2
f 81/3/2 79/3/2 82/3/2
f 82/3/2 83/3/2 84/3/2
f 84/3/2 83/3/2 85/3/2
f 87/1/2 88/1/2 89/1/2
f 89/1/2 88/1/2 90/1/2
f 91/1/2 92/1/2 93/1/2
f 93/1/2 92/1/2 94/1/2
f 85/3/2 86/3/2 96/3/2
f 96/3/2 86/3/2 97/3/2
f 95/3/2 96/3/2 100/3/2
f 100/3/2 96/3/2 101/3/2
f 98/2/2 99/2/2 102/2/2
f 99/3/2 100/3/2 103/3/2
f 102/2/2 99/2/2 103/2/2
f 103/3/2 100/3/2 104/3/2
f 105/1/2 106/1/2 108/1/2
f 108/1/2 106/1/2 109/1/2
f 109/1/2 106/1/2 110/1/2
f 107/1/2 108/1/2 111/1/2
f 108/1/2 109/1/2 111/1/2
f 111/1/2 109/1/2 112/1/2
f 107/1/2 111/1/2 113/1/2
f 107/1/2 113/1/2 115/1/2
f 113/1/2 114/1/2 115/1/2
f 115/1/2 114/1/2 116/1/2
f 116/1/2 114/1/2 117/1/2
f 116/1/2 117/1/2 119/1/2
f 117/1/2 118/1/2 119/1/2
f 119/1/2 118/1/2 120/1/2
f 125/1/3 122/1/3 121/1/3
f 126/1/3 122/1/3 125/1/3
f 127/1/3 122/1/3 126/1/3
f 130/1/3 124/1/3 123/1/3
f 132/1/3 127/1/3 126/1/3
f 133/2/3 128/2/3 127/2/3
f 133/1/3 127/1/3 132/1/3
f 134/2/3 128/2/3 133/2/3
f 135/2/3 130/2/3 129/2/3
f 136/1/3 124/1/3 130/1/3
f 136/2/3 130/2/3 135/2/3
f 137/1/3 124/1/3 136/1/3
f 139/1/3 132/1/3 131/1/3
f 139/1/3 138/1/3 137/1/3
f 139/1/3 137/1/3 136/1/3
f 139/1/3 136/1/3 135/1/3
f 139/1/3 134/1/3 133/1/3
f 139/1/3 133/1/3 132/1/3
f 139/1/3 135/1/3 134/1/3
f 140/1/3 138/1/3 139/1/3
f 143/1/3 142/1/3 141/1/3
f 144/1/3 142/1/3 143/1/3
f 149/1/3 145/1/3 144/1/3
f 150/1/3 145/1/3 149/1/3
f 151/1/3 147/1/3 146/1/3
f 152/1/3 147/1/3 151/1/3
f 154/1/3 149/1/3 148/1/3
f 155/1/3 149/1/3 154/1/3
f 156/1/3 153/1/3 152/1/3
f 157/1/3 153/1/3 156/1/3
f 164/2/3 159/2/3 158/2/3
f 165/1/3 160/1/3 159/1/3
f 165/2/3 159/2/3 164/2/3
f 166/1/3 160/1/3 165/1/3
f 167/1/3 162/1/3 161/1/3
f 168/2/3 163/2/3 162/2/3
f 168/1/3 162/1/3 167/1/3
f 169/2/3 163/2/3 168/2/3
f 174/3/3 171/3/3 170/3/3
f 175/3/3 171/3/3 174/3/3
f 176/3/3 173/3/3 172/3/3
f 177/3/3 173/3/3 176/3/3
f 180/3/3 179/3/3 178/3/3
f 181/3/3 179/3/3 180/3/3
f 182/1/4 183/1/4 186/1/4
f 186/1/4 183/1/4 187/1/4
f 187/1/4 183/1/4 188/1/4
f 184/1/4 185/1/4 191/1/4
f 191/1/4 185/1/4 192/1/4
f 187/1/4 188/1/4 194/1/4
f 188/2/4 189/2/4 195/2/4
f 194/1/4 188/1/4 195/1/4
f 195/2/4 189/2/4 196/2/4
f 190/2/4 191/2/4 197/2/4
f 191/1/4 192/1/4 198/1/4
f 197/2/4 191/2/4 198/2/4
f 198/1/4 192/1/4 199/1/4
f 193/1/4 194/1/4 201/1/4
f 199/1/4 200/1/4 201/1/4
f 197/1/4 198/1/4 201/1/4
f 198/1/4 199/1/4 201/1/4
f 194/1/4 195/1/4 201/1/4
f 196/1/4 197/1/4 201/1/4
f 195/1/4 196/1/4 201/1/4
f 201/1/4 200/1/4 202/1/4
f 203/1/4 204/1/4 205/1/4
f 203/1/4 205/1/4 209/1/4
f 205/1/4 206/1/4 209/1/4
f 209/1/4 206/1/4 210/1/4
f 207/1/4 208/1/4 211/1/4
f 211/1/4 208/1/4 212/1/4
f 203/1/4 209/1/4 213/1/4
f 213/1/4 209/1/4 214/1/4
f 212/1/4 208/1/4 215/1/4
f 215/1/4 208/1/4 216/1/4
f 217/1/4 218/1/4 219/1/4
f 219/1/4 218/1/4 222/1/4
f 220/1/4 221/1/4 223/1/4
f 222/1/4 218/1/4 224/1/4
f 224/1/4 218/1/4 225/1/4
f 220/1/4 223/1/4 226/1/4
f 226/1/4 223/1/4 227/1/4
f 228/3/4 229/3/4 232/3/4
f 232/3/4 229/3/4 233/3/4
f 230/3/4 231/3/4 234/3/4
f 234/3/4 231/3/4 235/3/4
f 236/3/4 237/3/4 240/3/4
f 240/3/4 237/3/4 241/3/4
f 238/3/4 239/3/4 242/3/4
f 242/3/4 239/3/4 243/3/4
f 244/3/4 245/3/4 246/3/4
f 246/3/4 245/3/4 247/3/4
f 250/2/5 249/2/5 248/2/5
f 251/2/5 249/2/5 250/2/5
f 252/3/5 251/3/5 250/3/5
f 253/3/5 251/3/5 252/3/5
f 258/1/5 255/1/5 254/1/5
f 259/1/5 257/1/5 256/1/5
f 260/1/5 258/1/5 254/1/5
f 261/1/5 258/1/5 260/1/5
f 262/1/5 257/1/5 259/1/5
f 263/1/5 257/1/5 262/1/5
f 266/3/5 265/3/5 264/3/5
f 267/3/5 265/3/5 266/3/5
f 272/1/5 269/1/5 268/1/5
f 273/1/5 269/1/5 272/1/5
f 274/1/5 271/1/5 270/1/5
f 275/1/5 271/1/5 274/1/5
f 276/1/5 274/1/5 273/1/5
f 277/1/5 274/1/5 276/1/5
f 280/3/5 279/3/5 278/3/5
f 281/3/5 279/3/5 280/3/5
f 284/1/5 283/1/5 282/1/5
f 285/1/5 283/1/5 284/1/5
f 288/2/5 287/2/5 286/2/5
f 289/2/5 287/2/5 288/2/5
f 292/1/5 291/1/5 290/1/5
f 293/1/5 291/1/5 292/1/5
f 296/1/5 295/1/5 294/1/5
f 297/1/5 295/1/5 296/1/5
f 300/1/5 299/1/5 298/1/5
f 301/1/5 299/1/5 300/1/5
f 304/1/5 303/1/5 302/1/5
f 305/1/5 303/1/5 304/1/5
f 308/3/5 307/3/5 306/3/5
f 309/3/5 307/3/5 308/3/5
f 312/3/5 311/3/5 310/3/5
f 313/3/5 311/3/5 312/3/5
f 314/3/6 315/3/6 316/3/6
f 316/3/6 315/3/6 317/3/6
f 318/1/6 319/1/6 320/1/6
f 320/1/6 319/1/6 321/1/6
f 322/3/6 323/3/6 324/3/6
f 324/3/6 323/3/6 325/3/6
f 326/1/6 327/1/6 330/1/6
f 330/1/6 327/1/6 331/1/6
f 328/1/6 329/1/6 332/1/6
f 332/1/6 329/1/6 333/1/6
f 334/1/6 335/1/6 336/1/6
f 336/1/6 335/1/6 337/1/6
f 338/1/6 339/1/6 340/1/6
f 340/1/6 339/1/6 341/1/6
f 342/2/6 343/2/6 344/2/6
f 344/2/6 343/2/6 345/2/6
f 346/1/6 347/1/6 348/1/6
f 348/1/6 347/1/6 349/1/6
f 349/1/6 347/1/6 350/1/6
f 351/1/6 352/1/6 354/1/6
f 354/1/6 352/1/6 355/1/6
f 353/1/6 354/1/6 356/1/6
f 356/1/6 354/1/6 357/1/6
f 358/3/6 359/3/6 360/3/6
f 360/3/6 359/3/6 361/3/6
f 362/1/6 363/1/6 364/1/6
f 364/1/6 363/1/6 365/1/6
f 365/1/6 363/1/6 366/1/6
f 367/3/6 368/3/6 369/3/6
f 369/3/6 368/3/6 370/3/6
f 371/2/6 372/2/6 373/2/6
f 373/2/6 372/2/6 374/2/6
f 373/3/6 374/3/6 375/3/6
f 375/3/6 374/3/6 376/3/6
