# MagicaVoxel @ Ephtracy

# group
o 

# material
mtllib BowPull4.mtl
usemtl palette

# normals
vn -1 0 0
vn 1 0 0
vn 0 0 1
vn 0 0 -1
vn 0 -1 0
vn 0 1 0

# texcoords
vt 0.142578 0.5
vt 0.224609 0.5
vt 0.259766 0.5

# verts
v -0.1 0.1 0.4
v -0.1 0.1 0.2
v -0.1 0.2 0.5
v -0.1 0.2 0.4
v -0.1 0.2 0.3
v -0.1 0.2 0.2
v -0.1 0.3 0.4
v -0.1 0.3 0.3
v -0.1 0.5 0.5
v -0.1 0.5 0.4
v -0.1 0.8 0.5
v -0.1 0.8 0.4
v -0.1 0.9 0.5
v -0.1 0.9 0.4
v 0 0 0.3
v 0 0 0.2
v 0 0 0.1
v 0 0.1 0.3
v 0 0.1 0.2
v 0 0.1 0.1
v 0 0.1 0
v 0 0.2 0.1
v 0 0.2 0
v 0 0.2 -0.1
v 0 0.3 0.4
v 0 0.3 0.3
v 0 0.3 0
v 0 0.3 -0.1
v 0 0.3 -0.2
v 0 0.4 0.4
v 0 0.4 0.3
v 0 0.4 -0.1
v 0 0.4 -0.2
v 0 0.4 -0.3
v 0 0.5 0.5
v 0 0.5 0.4
v 0 0.6 0.5
v 0 0.6 0.4
v 0 0.7 0.5
v 0 0.7 0.4
v 0 0.8 0.5
v 0 0.8 0.4
v 0 0.9 0.4
v 0 0.9 0.3
v 0 0.9 -0.1
v 0 0.9 -0.2
v 0 0.9 -0.3
v 0 1 0
v 0 1 -0.1
v 0 1 -0.2
v 0 1.1 0.4
v 0 1.1 0.3
v 0 1.1 0.2
v 0 1.1 0.1
v 0 1.1 0
v 0 1.1 -0.1
v 0 1.2 0.3
v 0 1.2 0.2
v 0 1.2 0.1
v 0 1.2 0
v 0 1.3 0.3
v 0 1.3 0.2
v 0 1.3 0.1
v 0.1 0.1 0.4
v 0.1 0.1 0.3
v 0.1 0.2 0.5
v 0.1 0.2 0.4
v 0.1 0.2 0.3
v 0.1 0.4 0.5
v 0.1 0.4 0.4
v 0.1 0.6 0.5
v 0.1 0.6 0.4
v 0.1 0.7 0.5
v 0.1 0.7 0.4
v 0.1 0.9 0.5
v 0.1 0.9 0.4
v 0.1 1.1 0.5
v 0.1 1.1 0.4
v 0.1 1.1 0.3
v 0.1 1.2 0.4
v 0.1 1.2 0.3
v 0 0.1 0.4
v 0 0.1 0.3
v 0 0.2 0.5
v 0 0.2 0.4
v 0 0.2 0.3
v 0 0.4 0.5
v 0 0.4 0.4
v 0.1 0 0.3
v 0.1 0 0.2
v 0.1 0 0.1
v 0.1 0.1 0.3
v 0.1 0.1 0.2
v 0.1 0.1 0.1
v 0.1 0.1 0
v 0.1 0.2 0.1
v 0.1 0.2 0
v 0.1 0.2 -0.1
v 0.1 0.3 0.4
v 0.1 0.3 0.3
v 0.1 0.3 0
v 0.1 0.3 -0.1
v 0.1 0.3 -0.2
v 0.1 0.4 0.4
v 0.1 0.4 0.3
v 0.1 0.4 -0.1
v 0.1 0.4 -0.2
v 0.1 0.4 -0.3
v 0.1 0.9 0.4
v 0.1 0.9 0.3
v 0.1 0.9 -0.1
v 0.1 0.9 -0.2
v 0.1 0.9 -0.3
v 0.1 1 0.4
v 0.1 1 0.3
v 0.1 1 0
v 0.1 1 -0.1
v 0.1 1 -0.2
v 0.1 1.1 0.1
v 0.1 1.1 0
v 0.1 1.1 -0.1
v 0.1 1.2 0.3
v 0.1 1.2 0.2
v 0.1 1.2 0.1
v 0.1 1.2 0
v 0.1 1.3 0.3
v 0.1 1.3 0.2
v 0.1 1.3 0.1
v 0.2 0.1 0.4
v 0.2 0.1 0.2
v 0.2 0.2 0.5
v 0.2 0.2 0.4
v 0.2 0.2 0.3
v 0.2 0.2 0.2
v 0.2 0.3 0.4
v 0.2 0.3 0.3
v 0.2 1 0.4
v 0.2 1 0.3
v 0.2 1.1 0.5
v 0.2 1.1 0.4
v 0.2 1.1 0.3
v 0.2 1.1 0.2
v 0.2 1.2 0.4
v 0.2 1.2 0.2
v -0.1 0.2 0.5
v -0.1 0.5 0.5
v -0.1 0.8 0.5
v -0.1 0.9 0.5
v 0 0.2 0.5
v 0 0.4 0.5
v 0 0.5 0.5
v 0 0.6 0.5
v 0 0.7 0.5
v 0 0.8 0.5
v 0.1 0.2 0.5
v 0.1 0.4 0.5
v 0.1 0.5 0.5
v 0.1 0.6 0.5
v 0.1 0.7 0.5
v 0.1 0.8 0.5
v 0.1 0.9 0.5
v 0.1 1.1 0.5
v 0.2 0.2 0.5
v 0.2 1.1 0.5
v -0.1 0.1 0.4
v -0.1 0.2 0.4
v 0 0.1 0.4
v 0 0.2 0.4
v 0 0.4 0.4
v 0 0.9 0.4
v 0 1.1 0.4
v 0.1 0.1 0.4
v 0.1 0.2 0.4
v 0.1 0.4 0.4
v 0.1 0.9 0.4
v 0.1 1.1 0.4
v 0.1 1.2 0.4
v 0.2 0.1 0.4
v 0.2 0.2 0.4
v 0.2 1.1 0.4
v 0.2 1.2 0.4
v 0 0 0.3
v 0 0.1 0.3
v 0 0.2 0.3
v 0 1.1 0.3
v 0 1.2 0.3
v 0 1.3 0.3
v 0.1 0 0.3
v 0.1 0.1 0.3
v 0.1 0.2 0.3
v 0.1 1.1 0.3
v 0.1 1.2 0.3
v 0.1 1.3 0.3
v 0 0.1 0.1
v 0 0.2 0.1
v 0 1.1 0.1
v 0 1.2 0.1
v 0.1 0.1 0.1
v 0.1 0.2 0.1
v 0.1 1.1 0.1
v 0.1 1.2 0.1
v 0 0.2 0
v 0 0.3 0
v 0 1 0
v 0 1.1 0
v 0.1 0.2 0
v 0.1 0.3 0
v 0.1 1 0
v 0.1 1.1 0
v 0 0.3 -0.1
v 0 0.4 -0.1
v 0 0.9 -0.1
v 0 1 -0.1
v 0.1 0.3 -0.1
v 0.1 0.4 -0.1
v 0.1 0.9 -0.1
v 0.1 1 -0.1
v 0 0.4 -0.2
v 0 0.9 -0.2
v 0.1 0.4 -0.2
v 0.1 0.9 -0.2
v -0.1 0.3 0.4
v -0.1 0.5 0.4
v -0.1 0.8 0.4
v -0.1 0.9 0.4
v 0 0.3 0.4
v 0 0.4 0.4
v 0 0.5 0.4
v 0 0.6 0.4
v 0 0.7 0.4
v 0 0.8 0.4
v 0 0.9 0.4
v 0.1 0.3 0.4
v 0.1 0.4 0.4
v 0.1 0.5 0.4
v 0.1 0.6 0.4
v 0.1 0.7 0.4
v 0.1 0.8 0.4
v 0.1 0.9 0.4
v 0.1 1 0.4
v 0.2 0.3 0.4
v 0.2 1 0.4
v -0.1 0.2 0.3
v -0.1 0.3 0.3
v 0 0.3 0.3
v 0 0.4 0.3
v 0 0.9 0.3
v 0 1.1 0.3
v 0.1 0.3 0.3
v 0.1 0.4 0.3
v 0.1 0.9 0.3
v 0.1 1 0.3
v 0.2 0.2 0.3
v 0.2 0.3 0.3
v 0.2 1 0.3
v 0.2 1.1 0.3
v -0.1 0.1 0.2
v -0.1 0.2 0.2
v 0 0.1 0.2
v 0 1.1 0.2
v 0 1.2 0.2
v 0.1 0.1 0.2
v 0.1 1.2 0.2
v 0.2 0.1 0.2
v 0.2 0.2 0.2
v 0.2 1.1 0.2
v 0.2 1.2 0.2
v 0 0 0.1
v 0 0.1 0.1
v 0 1.2 0.1
v 0 1.3 0.1
v 0.1 0 0.1
v 0.1 0.1 0.1
v 0.1 1.2 0.1
v 0.1 1.3 0.1
v 0 0.1 0
v 0 0.2 0
v 0 1.1 0
v 0 1.2 0
v 0.1 0.1 0
v 0.1 0.2 0
v 0.1 1.1 0
v 0.1 1.2 0
v 0 0.2 -0.1
v 0 0.3 -0.1
v 0 1 -0.1
v 0 1.1 -0.1
v 0.1 0.2 -0.1
v 0.1 0.3 -0.1
v 0.1 1 -0.1
v 0.1 1.1 -0.1
v 0 0.3 -0.2
v 0 0.4 -0.2
v 0 0.9 -0.2
v 0 1 -0.2
v 0.1 0.3 -0.2
v 0.1 0.4 -0.2
v 0.1 0.9 -0.2
v 0.1 1 -0.2
v 0 0.4 -0.3
v 0 0.9 -0.3
v 0.1 0.4 -0.3
v 0.1 0.9 -0.3
v 0 0 0.3
v 0.1 0 0.3
v 0 0 0.2
v 0.1 0 0.2
v 0 0 0.1
v 0.1 0 0.1
v -0.1 0.1 0.4
v 0 0.1 0.4
v 0.1 0.1 0.4
v 0.2 0.1 0.4
v 0 0.1 0.3
v 0.1 0.1 0.3
v -0.1 0.1 0.2
v 0 0.1 0.2
v 0.1 0.1 0.2
v 0.2 0.1 0.2
v 0 0.1 0.1
v 0.1 0.1 0.1
v 0 0.1 0
v 0.1 0.1 0
v -0.1 0.2 0.5
v 0 0.2 0.5
v 0.1 0.2 0.5
v 0.2 0.2 0.5
v -0.1 0.2 0.4
v 0 0.2 0.4
v 0.1 0.2 0.4
v 0.2 0.2 0.4
v 0 0.2 0.3
v 0.1 0.2 0.3
v 0 0.2 0
v 0.1 0.2 0
v 0 0.2 -0.1
v 0.1 0.2 -0.1
v 0 0.3 -0.1
v 0.1 0.3 -0.1
v 0 0.3 -0.2
v 0.1 0.3 -0.2
v 0 0.4 0.5
v 0.1 0.4 0.5
v 0 0.4 0.4
v 0.1 0.4 0.4
v 0 0.4 -0.2
v 0.1 0.4 -0.2
v 0 0.4 -0.3
v 0.1 0.4 -0.3
v 0 0.7 0.5
v 0.1 0.7 0.5
v 0 0.7 0.4
v 0.1 0.7 0.4
v -0.1 0.8 0.5
v 0 0.8 0.5
v -0.1 0.8 0.4
v 0 0.8 0.4
v 0 0.9 0.4
v 0.1 0.9 0.4
v 0 0.9 0.3
v 0.1 0.9 0.3
v 0 0.9 -0.1
v 0.1 0.9 -0.1
v 0 0.9 -0.2
v 0.1 0.9 -0.2
v 0.1 1 0.4
v 0.2 1 0.4
v 0.1 1 0.3
v 0.2 1 0.3
v 0 1 0
v 0.1 1 0
v 0 1 -0.1
v 0.1 1 -0.1
v 0 1.1 0.3
v 0.2 1.1 0.3
v 0 1.1 0.2
v 0.2 1.1 0.2
v 0 1.1 0.1
v 0.1 1.1 0.1
v 0 1.1 0
v 0.1 1.1 0
v 0 1.2 0.2
v 0.1 1.2 0.2
v 0 1.2 0.1
v 0.1 1.2 0.1
v 0 0.1 0.2
v 0.1 0.1 0.2
v 0 0.1 0.1
v 0.1 0.1 0.1
v -0.1 0.2 0.3
v 0.2 0.2 0.3
v -0.1 0.2 0.2
v 0.2 0.2 0.2
v 0 0.2 0.1
v 0.1 0.2 0.1
v 0 0.2 0
v 0.1 0.2 0
v -0.1 0.3 0.4
v 0 0.3 0.4
v 0.1 0.3 0.4
v 0.2 0.3 0.4
v -0.1 0.3 0.3
v 0 0.3 0.3
v 0.1 0.3 0.3
v 0.2 0.3 0.3
v 0 0.3 0
v 0.1 0.3 0
v 0 0.3 -0.1
v 0.1 0.3 -0.1
v 0 0.4 0.4
v 0.1 0.4 0.4
v 0 0.4 0.3
v 0.1 0.4 0.3
v 0 0.4 -0.1
v 0.1 0.4 -0.1
v 0 0.4 -0.2
v 0.1 0.4 -0.2
v -0.1 0.5 0.5
v 0 0.5 0.5
v -0.1 0.5 0.4
v 0 0.5 0.4
v 0 0.6 0.5
v 0.1 0.6 0.5
v 0 0.6 0.4
v 0.1 0.6 0.4
v -0.1 0.9 0.5
v 0.1 0.9 0.5
v -0.1 0.9 0.4
v 0 0.9 0.4
v 0.1 0.9 0.4
v 0 0.9 -0.2
v 0.1 0.9 -0.2
v 0 0.9 -0.3
v 0.1 0.9 -0.3
v 0 1 -0.1
v 0.1 1 -0.1
v 0 1 -0.2
v 0.1 1 -0.2
v 0.1 1.1 0.5
v 0.2 1.1 0.5
v 0 1.1 0.4
v 0.1 1.1 0.4
v 0.2 1.1 0.4
v 0 1.1 0.3
v 0.1 1.1 0.3
v 0 1.1 0
v 0.1 1.1 0
v 0 1.1 -0.1
v 0.1 1.1 -0.1
v 0.1 1.2 0.4
v 0.2 1.2 0.4
v 0.1 1.2 0.3
v 0.1 1.2 0.2
v 0.2 1.2 0.2
v 0 1.2 0.1
v 0.1 1.2 0.1
v 0 1.2 0
v 0.1 1.2 0
v 0 1.3 0.3
v 0.1 1.3 0.3
v 0 1.3 0.2
v 0.1 1.3 0.2
v 0 1.3 0.1
v 0.1 1.3 0.1

# faces
f 4/1/1 2/1/1 1/1/1
f 5/1/1 2/1/1 4/1/1
f 6/1/1 2/1/1 5/1/1
f 7/1/1 4/1/1 3/1/1
f 7/1/1 5/1/1 4/1/1
f 8/1/1 5/1/1 7/1/1
f 9/1/1 7/1/1 3/1/1
f 10/1/1 7/1/1 9/1/1
f 13/1/1 12/1/1 11/1/1
f 14/1/1 12/1/1 13/1/1
f 18/2/1 16/2/1 15/2/1
f 19/3/1 17/3/1 16/3/1
f 19/2/1 16/2/1 18/2/1
f 20/3/1 17/3/1 19/3/1
f 22/3/1 21/3/1 20/3/1
f 23/3/1 21/3/1 22/3/1
f 27/3/1 24/3/1 23/3/1
f 28/3/1 24/3/1 27/3/1
f 30/1/1 26/1/1 25/1/1
f 31/1/1 26/1/1 30/1/1
f 32/3/1 29/3/1 28/3/1
f 33/3/1 29/3/1 32/3/1
f 37/2/1 36/2/1 35/2/1
f 38/2/1 36/2/1 37/2/1
f 41/2/1 40/2/1 39/2/1
f 42/2/1 40/2/1 41/2/1
f 46/3/1 34/3/1 33/3/1
f 47/3/1 34/3/1 46/3/1
f 49/3/1 46/3/1 45/3/1
f 50/3/1 46/3/1 49/3/1
f 51/1/1 44/1/1 43/1/1
f 52/1/1 44/1/1 51/1/1
f 55/3/1 49/3/1 48/3/1
f 56/3/1 49/3/1 55/3/1
f 57/1/1 53/1/1 52/1/1
f 58/1/1 53/1/1 57/1/1
f 59/3/1 55/3/1 54/3/1
f 60/3/1 55/3/1 59/3/1
f 61/2/1 58/2/1 57/2/1
f 62/3/1 59/3/1 58/3/1
f 62/2/1 58/2/1 61/2/1
f 63/3/1 59/3/1 62/3/1
f 67/1/1 65/1/1 64/1/1
f 68/1/1 65/1/1 67/1/1
f 69/1/1 67/1/1 66/1/1
f 70/1/1 67/1/1 69/1/1
f 73/1/1 72/1/1 71/1/1
f 74/1/1 72/1/1 73/1/1
f 77/1/1 76/1/1 75/1/1
f 78/1/1 76/1/1 77/1/1
f 80/1/1 79/1/1 78/1/1
f 81/1/1 79/1/1 80/1/1
f 82/1/2 83/1/2 85/1/2
f 85/1/2 83/1/2 86/1/2
f 84/1/2 85/1/2 87/1/2
f 87/1/2 85/1/2 88/1/2
f 89/2/2 90/2/2 92/2/2
f 90/3/2 91/3/2 93/3/2
f 92/2/2 90/2/2 93/2/2
f 93/3/2 91/3/2 94/3/2
f 94/3/2 95/3/2 96/3/2
f 96/3/2 95/3/2 97/3/2
f 97/3/2 98/3/2 101/3/2
f 101/3/2 98/3/2 102/3/2
f 99/1/2 100/1/2 104/1/2
f 104/1/2 100/1/2 105/1/2
f 102/3/2 103/3/2 106/3/2
f 106/3/2 103/3/2 107/3/2
f 107/3/2 108/3/2 112/3/2
f 112/3/2 108/3/2 113/3/2
f 109/1/2 110/1/2 114/1/2
f 114/1/2 110/1/2 115/1/2
f 111/3/2 112/3/2 117/3/2
f 117/3/2 112/3/2 118/3/2
f 116/3/2 117/3/2 120/3/2
f 120/3/2 117/3/2 121/3/2
f 119/3/2 120/3/2 124/3/2
f 124/3/2 120/3/2 125/3/2
f 122/2/2 123/2/2 126/2/2
f 123/3/2 124/3/2 127/3/2
f 126/2/2 123/2/2 127/2/2
f 127/3/2 124/3/2 128/3/2
f 129/1/2 130/1/2 132/1/2
f 132/1/2 130/1/2 133/1/2
f 133/1/2 130/1/2 134/1/2
f 131/1/2 132/1/2 135/1/2
f 132/1/2 133/1/2 135/1/2
f 135/1/2 133/1/2 136/1/2
f 131/1/2 135/1/2 137/1/2
f 131/1/2 137/1/2 139/1/2
f 137/1/2 138/1/2 139/1/2
f 139/1/2 138/1/2 140/1/2
f 140/1/2 138/1/2 141/1/2
f 140/1/2 141/1/2 143/1/2
f 141/1/2 142/1/2 143/1/2
f 143/1/2 142/1/2 144/1/2
f 149/1/3 146/1/3 145/1/3
f 150/1/3 146/1/3 149/1/3
f 151/1/3 146/1/3 150/1/3
f 154/1/3 148/1/3 147/1/3
f 156/1/3 151/1/3 150/1/3
f 157/2/3 152/2/3 151/2/3
f 157/1/3 151/1/3 156/1/3
f 158/2/3 152/2/3 157/2/3
f 159/2/3 154/2/3 153/2/3
f 160/1/3 148/1/3 154/1/3
f 160/2/3 154/2/3 159/2/3
f 161/1/3 148/1/3 160/1/3
f 163/1/3 156/1/3 155/1/3
f 163/1/3 162/1/3 161/1/3
f 163/1/3 161/1/3 160/1/3
f 163/1/3 160/1/3 159/1/3
f 163/1/3 158/1/3 157/1/3
f 163/1/3 157/1/3 156/1/3
f 163/1/3 159/1/3 158/1/3
f 164/1/3 162/1/3 163/1/3
f 167/1/3 166/1/3 165/1/3
f 168/1/3 166/1/3 167/1/3
f 173/1/3 169/1/3 168/1/3
f 174/1/3 169/1/3 173/1/3
f 175/1/3 171/1/3 170/1/3
f 176/1/3 171/1/3 175/1/3
f 178/1/3 173/1/3 172/1/3
f 179/1/3 173/1/3 178/1/3
f 180/1/3 177/1/3 176/1/3
f 181/1/3 177/1/3 180/1/3
f 188/2/3 183/2/3 182/2/3
f 189/1/3 184/1/3 183/1/3
f 189/2/3 183/2/3 188/2/3
f 190/1/3 184/1/3 189/1/3
f 191/1/3 186/1/3 185/1/3
f 192/2/3 187/2/3 186/2/3
f 192/1/3 186/1/3 191/1/3
f 193/2/3 187/2/3 192/2/3
f 198/3/3 195/3/3 194/3/3
f 199/3/3 195/3/3 198/3/3
f 200/3/3 197/3/3 196/3/3
f 201/3/3 197/3/3 200/3/3
f 206/3/3 203/3/3 202/3/3
f 207/3/3 203/3/3 206/3/3
f 208/3/3 205/3/3 204/3/3
f 209/3/3 205/3/3 208/3/3
f 214/3/3 211/3/3 210/3/3
f 215/3/3 211/3/3 214/3/3
f 216/3/3 213/3/3 212/3/3
f 217/3/3 213/3/3 216/3/3
f 220/3/3 219/3/3 218/3/3
f 221/3/3 219/3/3 220/3/3
f 222/1/4 223/1/4 226/1/4
f 226/1/4 223/1/4 227/1/4
f 227/1/4 223/1/4 228/1/4
f 224/1/4 225/1/4 231/1/4
f 231/1/4 225/1/4 232/1/4
f 227/1/4 228/1/4 234/1/4
f 228/2/4 229/2/4 235/2/4
f 234/1/4 228/1/4 235/1/4
f 235/2/4 229/2/4 236/2/4
f 230/2/4 231/2/4 237/2/4
f 231/1/4 232/1/4 238/1/4
f 237/2/4 231/2/4 238/2/4
f 238/1/4 232/1/4 239/1/4
f 233/1/4 234/1/4 241/1/4
f 239/1/4 240/1/4 241/1/4
f 237/1/4 238/1/4 241/1/4
f 238/1/4 239/1/4 241/1/4
f 234/1/4 235/1/4 241/1/4
f 236/1/4 237/1/4 241/1/4
f 235/1/4 236/1/4 241/1/4
f 241/1/4 240/1/4 242/1/4
f 243/1/4 244/1/4 245/1/4
f 243/1/4 245/1/4 249/1/4
f 245/1/4 246/1/4 249/1/4
f 249/1/4 246/1/4 250/1/4
f 247/1/4 248/1/4 251/1/4
f 251/1/4 248/1/4 252/1/4
f 243/1/4 249/1/4 253/1/4
f 253/1/4 249/1/4 254/1/4
f 252/1/4 248/1/4 255/1/4
f 255/1/4 248/1/4 256/1/4
f 257/1/4 258/1/4 259/1/4
f 259/1/4 258/1/4 262/1/4
f 260/1/4 261/1/4 263/1/4
f 262/1/4 258/1/4 264/1/4
f 264/1/4 258/1/4 265/1/4
f 260/1/4 263/1/4 266/1/4
f 266/1/4 263/1/4 267/1/4
f 268/3/4 269/3/4 272/3/4
f 272/3/4 269/3/4 273/3/4
f 270/3/4 271/3/4 274/3/4
f 274/3/4 271/3/4 275/3/4
f 276/3/4 277/3/4 280/3/4
f 280/3/4 277/3/4 281/3/4
f 278/3/4 279/3/4 282/3/4
f 282/3/4 279/3/4 283/3/4
f 284/3/4 285/3/4 288/3/4
f 288/3/4 285/3/4 289/3/4
f 286/3/4 287/3/4 290/3/4
f 290/3/4 287/3/4 291/3/4
f 292/3/4 293/3/4 296/3/4
f 296/3/4 293/3/4 297/3/4
f 294/3/4 295/3/4 298/3/4
f 298/3/4 295/3/4 299/3/4
f 300/3/4 301/3/4 302/3/4
f 302/3/4 301/3/4 303/3/4
f 306/2/5 305/2/5 304/2/5
f 307/2/5 305/2/5 306/2/5
f 308/3/5 307/3/5 306/3/5
f 309/3/5 307/3/5 308/3/5
f 314/1/5 311/1/5 310/1/5
f 315/1/5 313/1/5 312/1/5
f 316/1/5 314/1/5 310/1/5
f 317/1/5 314/1/5 316/1/5
f 318/1/5 313/1/5 315/1/5
f 319/1/5 313/1/5 318/1/5
f 322/3/5 321/3/5 320/3/5
f 323/3/5 321/3/5 322/3/5
f 328/1/5 325/1/5 324/1/5
f 329/1/5 325/1/5 328/1/5
f 330/1/5 327/1/5 326/1/5
f 331/1/5 327/1/5 330/1/5
f 332/1/5 330/1/5 329/1/5
f 333/1/5 330/1/5 332/1/5
f 336/3/5 335/3/5 334/3/5
f 337/3/5 335/3/5 336/3/5
f 340/3/5 339/3/5 338/3/5
f 341/3/5 339/3/5 340/3/5
f 344/1/5 343/1/5 342/1/5
f 345/1/5 343/1/5 344/1/5
f 348/3/5 347/3/5 346/3/5
f 349/3/5 347/3/5 348/3/5
f 352/2/5 351/2/5 350/2/5
f 353/2/5 351/2/5 352/2/5
f 356/1/5 355/1/5 354/1/5
f 357/1/5 355/1/5 356/1/5
f 360/1/5 359/1/5 358/1/5
f 361/1/5 359/1/5 360/1/5
f 364/3/5 363/3/5 362/3/5
f 365/3/5 363/3/5 364/3/5
f 368/1/5 367/1/5 366/1/5
f 369/1/5 367/1/5 368/1/5
f 372/3/5 371/3/5 370/3/5
f 373/3/5 371/3/5 372/3/5
f 376/1/5 375/1/5 374/1/5
f 377/1/5 375/1/5 376/1/5
f 380/3/5 379/3/5 378/3/5
f 381/3/5 379/3/5 380/3/5
f 384/3/5 383/3/5 382/3/5
f 385/3/5 383/3/5 384/3/5
f 386/3/6 387/3/6 388/3/6
f 388/3/6 387/3/6 389/3/6
f 390/1/6 391/1/6 392/1/6
f 392/1/6 391/1/6 393/1/6
f 394/3/6 395/3/6 396/3/6
f 396/3/6 395/3/6 397/3/6
f 398/1/6 399/1/6 402/1/6
f 402/1/6 399/1/6 403/1/6
f 400/1/6 401/1/6 404/1/6
f 404/1/6 401/1/6 405/1/6
f 406/3/6 407/3/6 408/3/6
f 408/3/6 407/3/6 409/3/6
f 410/1/6 411/1/6 412/1/6
f 412/1/6 411/1/6 413/1/6
f 414/3/6 415/3/6 416/3/6
f 416/3/6 415/3/6 417/3/6
f 418/1/6 419/1/6 420/1/6
f 420/1/6 419/1/6 421/1/6
f 422/2/6 423/2/6 424/2/6
f 424/2/6 423/2/6 425/2/6
f 426/1/6 427/1/6 428/1/6
f 428/1/6 427/1/6 429/1/6
f 429/1/6 427/1/6 430/1/6
f 431/3/6 432/3/6 433/3/6
f 433/3/6 432/3/6 434/3/6
f 435/3/6 436/3/6 437/3/6
f 437/3/6 436/3/6 438/3/6
f 439/1/6 440/1/6 442/1/6
f 442/1/6 440/1/6 443/1/6
f 441/1/6 442/1/6 444/1/6
f 444/1/6 442/1/6 445/1/6
f 446/3/6 447/3/6 448/3/6
f 448/3/6 447/3/6 449/3/6
f 450/1/6 451/1/6 452/1/6
f 452/1/6 451/1/6 453/1/6
f 453/1/6 451/1/6 454/1/6
f 455/3/6 456/3/6 457/3/6
f 457/3/6 456/3/6 458/3/6
f 459/2/6 460/2/6 461/2/6
f 461/2/6 460/2/6 462/2/6
f 461/3/6 462/3/6 463/3/6
f 463/3/6 462/3/6 464/3/6
