# MagicaVoxel @ Ephtracy

# group
o 

# material
mtllib BowPull3.mtl
usemtl palette

# normals
vn -1 0 0
vn 1 0 0
vn 0 0 1
vn 0 0 -1
vn 0 -1 0
vn 0 1 0

# texcoords
vt 0.142578 0.5
vt 0.224609 0.5
vt 0.259766 0.5

# verts
v -0.1 0.1 0.4
v -0.1 0.1 0.2
v -0.1 0.2 0.5
v -0.1 0.2 0.4
v -0.1 0.2 0.3
v -0.1 0.2 0.2
v -0.1 0.3 0.4
v -0.1 0.3 0.3
v -0.1 0.5 0.5
v -0.1 0.5 0.4
v -0.1 0.8 0.5
v -0.1 0.8 0.4
v -0.1 1 0.4
v -0.1 1 0.3
v -0.1 1.1 0.5
v -0.1 1.1 0.4
v -0.1 1.1 0.3
v -0.1 1.1 0.2
v -0.1 1.2 0.4
v -0.1 1.2 0.2
v 0 0 0.3
v 0 0 0.2
v 0 0 0.1
v 0 0.1 0.3
v 0 0.1 0.2
v 0 0.1 0.1
v 0 0.1 0
v 0 0.2 0.1
v 0 0.2 0
v 0 0.2 -0.1
v 0 0.3 0.4
v 0 0.3 0.3
v 0 0.3 0
v 0 0.3 -0.1
v 0 0.3 -0.2
v 0 0.4 0.4
v 0 0.4 0.3
v 0 0.4 -0.1
v 0 0.4 -0.2
v 0 0.4 -0.3
v 0 0.5 0.5
v 0 0.5 0.4
v 0 0.5 -0.2
v 0 0.5 -0.3
v 0 0.5 -0.4
v 0 0.6 0.5
v 0 0.6 0.4
v 0 0.6 -0.3
v 0 0.6 -0.4
v 0 0.6 -0.5
v 0 0.7 0.5
v 0 0.7 0.4
v 0 0.7 -0.3
v 0 0.7 -0.4
v 0 0.7 -0.5
v 0 0.8 0.5
v 0 0.8 0.4
v 0 0.8 -0.2
v 0 0.8 -0.3
v 0 0.8 -0.4
v 0 0.9 0.4
v 0 0.9 0.3
v 0 0.9 -0.1
v 0 0.9 -0.2
v 0 0.9 -0.3
v 0 1 0.4
v 0 1 0.3
v 0 1 0
v 0 1 -0.1
v 0 1 -0.2
v 0 1.1 0.1
v 0 1.1 0
v 0 1.1 -0.1
v 0 1.2 0.3
v 0 1.2 0.2
v 0 1.2 0.1
v 0 1.2 0
v 0 1.3 0.3
v 0 1.3 0.2
v 0 1.3 0.1
v 0.1 0.1 0.4
v 0.1 0.1 0.3
v 0.1 0.2 0.5
v 0.1 0.2 0.4
v 0.1 0.2 0.3
v 0.1 0.4 0.5
v 0.1 0.4 0.4
v 0.1 0.6 0.5
v 0.1 0.6 0.4
v 0.1 0.7 0.5
v 0.1 0.7 0.4
v 0.1 0.9 0.5
v 0.1 0.9 0.4
v 0.1 1.1 0.5
v 0.1 1.1 0.4
v 0.1 1.1 0.3
v 0.1 1.2 0.4
v 0.1 1.2 0.3
v 0 0.1 0.4
v 0 0.1 0.3
v 0 0.2 0.5
v 0 0.2 0.4
v 0 0.2 0.3
v 0 0.4 0.5
v 0 0.4 0.4
v 0 0.9 0.5
v 0 0.9 0.4
v 0 1.1 0.5
v 0 1.1 0.4
v 0 1.1 0.3
v 0 1.2 0.4
v 0 1.2 0.3
v 0.1 0 0.3
v 0.1 0 0.2
v 0.1 0 0.1
v 0.1 0.1 0.3
v 0.1 0.1 0.2
v 0.1 0.1 0.1
v 0.1 0.1 0
v 0.1 0.2 0.1
v 0.1 0.2 0
v 0.1 0.2 -0.1
v 0.1 0.3 0.4
v 0.1 0.3 0.3
v 0.1 0.3 0
v 0.1 0.3 -0.1
v 0.1 0.3 -0.2
v 0.1 0.4 0.4
v 0.1 0.4 0.3
v 0.1 0.4 -0.1
v 0.1 0.4 -0.2
v 0.1 0.4 -0.3
v 0.1 0.5 -0.2
v 0.1 0.5 -0.3
v 0.1 0.5 -0.4
v 0.1 0.6 -0.3
v 0.1 0.6 -0.4
v 0.1 0.6 -0.5
v 0.1 0.7 -0.3
v 0.1 0.7 -0.4
v 0.1 0.7 -0.5
v 0.1 0.8 -0.2
v 0.1 0.8 -0.3
v 0.1 0.8 -0.4
v 0.1 0.9 0.4
v 0.1 0.9 0.3
v 0.1 0.9 -0.1
v 0.1 0.9 -0.2
v 0.1 0.9 -0.3
v 0.1 1 0.4
v 0.1 1 0.3
v 0.1 1 0
v 0.1 1 -0.1
v 0.1 1 -0.2
v 0.1 1.1 0.1
v 0.1 1.1 0
v 0.1 1.1 -0.1
v 0.1 1.2 0.3
v 0.1 1.2 0.2
v 0.1 1.2 0.1
v 0.1 1.2 0
v 0.1 1.3 0.3
v 0.1 1.3 0.2
v 0.1 1.3 0.1
v 0.2 0.1 0.4
v 0.2 0.1 0.2
v 0.2 0.2 0.5
v 0.2 0.2 0.4
v 0.2 0.2 0.3
v 0.2 0.2 0.2
v 0.2 0.3 0.4
v 0.2 0.3 0.3
v 0.2 1 0.4
v 0.2 1 0.3
v 0.2 1.1 0.5
v 0.2 1.1 0.4
v 0.2 1.1 0.3
v 0.2 1.1 0.2
v 0.2 1.2 0.4
v 0.2 1.2 0.2
v -0.1 0.2 0.5
v -0.1 0.5 0.5
v -0.1 0.8 0.5
v -0.1 1.1 0.5
v 0 0.2 0.5
v 0 0.4 0.5
v 0 0.5 0.5
v 0 0.6 0.5
v 0 0.7 0.5
v 0 0.8 0.5
v 0 0.9 0.5
v 0 1.1 0.5
v 0.1 0.2 0.5
v 0.1 0.4 0.5
v 0.1 0.5 0.5
v 0.1 0.6 0.5
v 0.1 0.7 0.5
v 0.1 0.8 0.5
v 0.1 0.9 0.5
v 0.1 1.1 0.5
v 0.2 0.2 0.5
v 0.2 1.1 0.5
v -0.1 0.1 0.4
v -0.1 0.2 0.4
v -0.1 1.1 0.4
v -0.1 1.2 0.4
v 0 0.1 0.4
v 0 0.2 0.4
v 0 0.4 0.4
v 0 0.9 0.4
v 0 1.1 0.4
v 0 1.2 0.4
v 0.1 0.1 0.4
v 0.1 0.2 0.4
v 0.1 0.4 0.4
v 0.1 0.9 0.4
v 0.1 1.1 0.4
v 0.1 1.2 0.4
v 0.2 0.1 0.4
v 0.2 0.2 0.4
v 0.2 1.1 0.4
v 0.2 1.2 0.4
v 0 0 0.3
v 0 0.1 0.3
v 0 0.2 0.3
v 0 1.1 0.3
v 0 1.2 0.3
v 0 1.3 0.3
v 0.1 0 0.3
v 0.1 0.1 0.3
v 0.1 0.2 0.3
v 0.1 1.1 0.3
v 0.1 1.2 0.3
v 0.1 1.3 0.3
v 0 0.1 0.1
v 0 0.2 0.1
v 0 1.1 0.1
v 0 1.2 0.1
v 0.1 0.1 0.1
v 0.1 0.2 0.1
v 0.1 1.1 0.1
v 0.1 1.2 0.1
v 0 0.2 0
v 0 0.3 0
v 0 1 0
v 0 1.1 0
v 0.1 0.2 0
v 0.1 0.3 0
v 0.1 1 0
v 0.1 1.1 0
v 0 0.3 -0.1
v 0 0.4 -0.1
v 0 0.9 -0.1
v 0 1 -0.1
v 0.1 0.3 -0.1
v 0.1 0.4 -0.1
v 0.1 0.9 -0.1
v 0.1 1 -0.1
v 0 0.4 -0.2
v 0 0.5 -0.2
v 0 0.8 -0.2
v 0 0.9 -0.2
v 0.1 0.4 -0.2
v 0.1 0.5 -0.2
v 0.1 0.8 -0.2
v 0.1 0.9 -0.2
v 0 0.5 -0.3
v 0 0.6 -0.3
v 0 0.7 -0.3
v 0 0.8 -0.3
v 0.1 0.5 -0.3
v 0.1 0.6 -0.3
v 0.1 0.7 -0.3
v 0.1 0.8 -0.3
v 0 0.6 -0.4
v 0 0.7 -0.4
v 0.1 0.6 -0.4
v 0.1 0.7 -0.4
v -0.1 0.3 0.4
v -0.1 0.5 0.4
v -0.1 0.8 0.4
v -0.1 1 0.4
v 0 0.3 0.4
v 0 0.4 0.4
v 0 0.5 0.4
v 0 0.6 0.4
v 0 0.7 0.4
v 0 0.8 0.4
v 0 0.9 0.4
v 0 1 0.4
v 0.1 0.3 0.4
v 0.1 0.4 0.4
v 0.1 0.5 0.4
v 0.1 0.6 0.4
v 0.1 0.7 0.4
v 0.1 0.8 0.4
v 0.1 0.9 0.4
v 0.1 1 0.4
v 0.2 0.3 0.4
v 0.2 1 0.4
v -0.1 0.2 0.3
v -0.1 0.3 0.3
v -0.1 1 0.3
v -0.1 1.1 0.3
v 0 0.3 0.3
v 0 0.4 0.3
v 0 0.9 0.3
v 0 1 0.3
v 0.1 0.3 0.3
v 0.1 0.4 0.3
v 0.1 0.9 0.3
v 0.1 1 0.3
v 0.2 0.2 0.3
v 0.2 0.3 0.3
v 0.2 1 0.3
v 0.2 1.1 0.3
v -0.1 0.1 0.2
v -0.1 0.2 0.2
v -0.1 1.1 0.2
v -0.1 1.2 0.2
v 0 0.1 0.2
v 0 1.2 0.2
v 0.1 0.1 0.2
v 0.1 1.2 0.2
v 0.2 0.1 0.2
v 0.2 0.2 0.2
v 0.2 1.1 0.2
v 0.2 1.2 0.2
v 0 0 0.1
v 0 0.1 0.1
v 0 1.2 0.1
v 0 1.3 0.1
v 0.1 0 0.1
v 0.1 0.1 0.1
v 0.1 1.2 0.1
v 0.1 1.3 0.1
v 0 0.1 0
v 0 0.2 0
v 0 1.1 0
v 0 1.2 0
v 0.1 0.1 0
v 0.1 0.2 0
v 0.1 1.1 0
v 0.1 1.2 0
v 0 0.2 -0.1
v 0 0.3 -0.1
v 0 1 -0.1
v 0 1.1 -0.1
v 0.1 0.2 -0.1
v 0.1 0.3 -0.1
v 0.1 1 -0.1
v 0.1 1.1 -0.1
v 0 0.3 -0.2
v 0 0.4 -0.2
v 0 0.9 -0.2
v 0 1 -0.2
v 0.1 0.3 -0.2
v 0.1 0.4 -0.2
v 0.1 0.9 -0.2
v 0.1 1 -0.2
v 0 0.4 -0.3
v 0 0.5 -0.3
v 0 0.8 -0.3
v 0 0.9 -0.3
v 0.1 0.4 -0.3
v 0.1 0.5 -0.3
v 0.1 0.8 -0.3
v 0.1 0.9 -0.3
v 0 0.5 -0.4
v 0 0.6 -0.4
v 0 0.7 -0.4
v 0 0.8 -0.4
v 0.1 0.5 -0.4
v 0.1 0.6 -0.4
v 0.1 0.7 -0.4
v 0.1 0.8 -0.4
v 0 0.6 -0.5
v 0 0.7 -0.5
v 0.1 0.6 -0.5
v 0.1 0.7 -0.5
v 0 0 0.3
v 0.1 0 0.3
v 0 0 0.2
v 0.1 0 0.2
v 0 0 0.1
v 0.1 0 0.1
v -0.1 0.1 0.4
v 0 0.1 0.4
v 0.1 0.1 0.4
v 0.2 0.1 0.4
v 0 0.1 0.3
v 0.1 0.1 0.3
v -0.1 0.1 0.2
v 0 0.1 0.2
v 0.1 0.1 0.2
v 0.2 0.1 0.2
v 0 0.1 0.1
v 0.1 0.1 0.1
v 0 0.1 0
v 0.1 0.1 0
v -0.1 0.2 0.5
v 0 0.2 0.5
v 0.1 0.2 0.5
v 0.2 0.2 0.5
v -0.1 0.2 0.4
v 0 0.2 0.4
v 0.1 0.2 0.4
v 0.2 0.2 0.4
v 0 0.2 0.3
v 0.1 0.2 0.3
v 0 0.2 0
v 0.1 0.2 0
v 0 0.2 -0.1
v 0.1 0.2 -0.1
v 0 0.3 -0.1
v 0.1 0.3 -0.1
v 0 0.3 -0.2
v 0.1 0.3 -0.2
v 0 0.4 0.5
v 0.1 0.4 0.5
v 0 0.4 0.4
v 0.1 0.4 0.4
v 0 0.4 -0.2
v 0.1 0.4 -0.2
v 0 0.4 -0.3
v 0.1 0.4 -0.3
v 0 0.5 -0.3
v 0.1 0.5 -0.3
v 0 0.5 -0.4
v 0.1 0.5 -0.4
v 0 0.6 -0.4
v 0.1 0.6 -0.4
v 0 0.6 -0.5
v 0.1 0.6 -0.5
v 0 0.7 0.5
v 0.1 0.7 0.5
v 0 0.7 0.4
v 0.1 0.7 0.4
v 0 0.7 -0.3
v 0.1 0.7 -0.3
v 0 0.7 -0.4
v 0.1 0.7 -0.4
v -0.1 0.8 0.5
v 0 0.8 0.5
v -0.1 0.8 0.4
v 0 0.8 0.4
v 0 0.8 -0.2
v 0.1 0.8 -0.2
v 0 0.8 -0.3
v 0.1 0.8 -0.3
v 0 0.9 0.4
v 0.1 0.9 0.4
v 0 0.9 0.3
v 0.1 0.9 0.3
v 0 0.9 -0.1
v 0.1 0.9 -0.1
v 0 0.9 -0.2
v 0.1 0.9 -0.2
v -0.1 1 0.4
v 0 1 0.4
v 0.1 1 0.4
v 0.2 1 0.4
v -0.1 1 0.3
v 0 1 0.3
v 0.1 1 0.3
v 0.2 1 0.3
v 0 1 0
v 0.1 1 0
v 0 1 -0.1
v 0.1 1 -0.1
v -0.1 1.1 0.3
v 0.2 1.1 0.3
v -0.1 1.1 0.2
v 0.2 1.1 0.2
v 0 1.1 0.1
v 0.1 1.1 0.1
v 0 1.1 0
v 0.1 1.1 0
v 0 1.2 0.2
v 0.1 1.2 0.2
v 0 1.2 0.1
v 0.1 1.2 0.1
v 0 0.1 0.2
v 0.1 0.1 0.2
v 0 0.1 0.1
v 0.1 0.1 0.1
v -0.1 0.2 0.3
v 0.2 0.2 0.3
v -0.1 0.2 0.2
v 0.2 0.2 0.2
v 0 0.2 0.1
v 0.1 0.2 0.1
v 0 0.2 0
v 0.1 0.2 0
v -0.1 0.3 0.4
v 0 0.3 0.4
v 0.1 0.3 0.4
v 0.2 0.3 0.4
v -0.1 0.3 0.3
v 0 0.3 0.3
v 0.1 0.3 0.3
v 0.2 0.3 0.3
v 0 0.3 0
v 0.1 0.3 0
v 0 0.3 -0.1
v 0.1 0.3 -0.1
v 0 0.4 0.4
v 0.1 0.4 0.4
v 0 0.4 0.3
v 0.1 0.4 0.3
v 0 0.4 -0.1
v 0.1 0.4 -0.1
v 0 0.4 -0.2
v 0.1 0.4 -0.2
v -0.1 0.5 0.5
v 0 0.5 0.5
v -0.1 0.5 0.4
v 0 0.5 0.4
v 0 0.5 -0.2
v 0.1 0.5 -0.2
v 0 0.5 -0.3
v 0.1 0.5 -0.3
v 0 0.6 0.5
v 0.1 0.6 0.5
v 0 0.6 0.4
v 0.1 0.6 0.4
v 0 0.6 -0.3
v 0.1 0.6 -0.3
v 0 0.6 -0.4
v 0.1 0.6 -0.4
v 0 0.7 -0.4
v 0.1 0.7 -0.4
v 0 0.7 -0.5
v 0.1 0.7 -0.5
v 0 0.8 -0.3
v 0.1 0.8 -0.3
v 0 0.8 -0.4
v 0.1 0.8 -0.4
v 0 0.9 0.5
v 0.1 0.9 0.5
v 0 0.9 0.4
v 0.1 0.9 0.4
v 0 0.9 -0.2
v 0.1 0.9 -0.2
v 0 0.9 -0.3
v 0.1 0.9 -0.3
v 0 1 -0.1
v 0.1 1 -0.1
v 0 1 -0.2
v 0.1 1 -0.2
v -0.1 1.1 0.5
v 0 1.1 0.5
v 0.1 1.1 0.5
v 0.2 1.1 0.5
v -0.1 1.1 0.4
v 0 1.1 0.4
v 0.1 1.1 0.4
v 0.2 1.1 0.4
v 0 1.1 0.3
v 0.1 1.1 0.3
v 0 1.1 0
v 0.1 1.1 0
v 0 1.1 -0.1
v 0.1 1.1 -0.1
v -0.1 1.2 0.4
v 0 1.2 0.4
v 0.1 1.2 0.4
v 0.2 1.2 0.4
v 0 1.2 0.3
v 0.1 1.2 0.3
v -0.1 1.2 0.2
v 0 1.2 0.2
v 0.1 1.2 0.2
v 0.2 1.2 0.2
v 0 1.2 0.1
v 0.1 1.2 0.1
v 0 1.2 0
v 0.1 1.2 0
v 0 1.3 0.3
v 0.1 1.3 0.3
v 0 1.3 0.2
v 0.1 1.3 0.2
v 0 1.3 0.1
v 0.1 1.3 0.1

# faces
f 4/1/1 2/1/1 1/1/1
f 5/1/1 2/1/1 4/1/1
f 6/1/1 2/1/1 5/1/1
f 7/1/1 4/1/1 3/1/1
f 7/1/1 5/1/1 4/1/1
f 8/1/1 5/1/1 7/1/1
f 9/1/1 7/1/1 3/1/1
f 10/1/1 7/1/1 9/1/1
f 13/1/1 12/1/1 11/1/1
f 15/1/1 13/1/1 11/1/1
f 15/1/1 14/1/1 13/1/1
f 16/1/1 14/1/1 15/1/1
f 17/1/1 14/1/1 16/1/1
f 19/1/1 17/1/1 16/1/1
f 19/1/1 18/1/1 17/1/1
f 20/1/1 18/1/1 19/1/1
f 24/2/1 22/2/1 21/2/1
f 25/3/1 23/3/1 22/3/1
f 25/2/1 22/2/1 24/2/1
f 26/3/1 23/3/1 25/3/1
f 28/3/1 27/3/1 26/3/1
f 29/3/1 27/3/1 28/3/1
f 33/3/1 30/3/1 29/3/1
f 34/3/1 30/3/1 33/3/1
f 36/1/1 32/1/1 31/1/1
f 37/1/1 32/1/1 36/1/1
f 38/3/1 35/3/1 34/3/1
f 39/3/1 35/3/1 38/3/1
f 43/3/1 40/3/1 39/3/1
f 44/3/1 40/3/1 43/3/1
f 46/2/1 42/2/1 41/2/1
f 47/2/1 42/2/1 46/2/1
f 48/3/1 45/3/1 44/3/1
f 49/3/1 45/3/1 48/3/1
f 54/3/1 50/3/1 49/3/1
f 55/3/1 50/3/1 54/3/1
f 56/2/1 52/2/1 51/2/1
f 57/2/1 52/2/1 56/2/1
f 59/3/1 54/3/1 53/3/1
f 60/3/1 54/3/1 59/3/1
f 64/3/1 59/3/1 58/3/1
f 65/3/1 59/3/1 64/3/1
f 66/1/1 62/1/1 61/1/1
f 67/1/1 62/1/1 66/1/1
f 69/3/1 64/3/1 63/3/1
f 70/3/1 64/3/1 69/3/1
f 72/3/1 69/3/1 68/3/1
f 73/3/1 69/3/1 72/3/1
f 76/3/1 72/3/1 71/3/1
f 77/3/1 72/3/1 76/3/1
f 78/2/1 75/2/1 74/2/1
f 79/3/1 76/3/1 75/3/1
f 79/2/1 75/2/1 78/2/1
f 80/3/1 76/3/1 79/3/1
f 84/1/1 82/1/1 81/1/1
f 85/1/1 82/1/1 84/1/1
f 86/1/1 84/1/1 83/1/1
f 87/1/1 84/1/1 86/1/1
f 90/1/1 89/1/1 88/1/1
f 91/1/1 89/1/1 90/1/1
f 94/1/1 93/1/1 92/1/1
f 95/1/1 93/1/1 94/1/1
f 97/1/1 96/1/1 95/1/1
f 98/1/1 96/1/1 97/1/1
f 99/1/2 100/1/2 102/1/2
f 102/1/2 100/1/2 103/1/2
f 101/1/2 102/1/2 104/1/2
f 104/1/2 102/1/2 105/1/2
f 106/1/2 107/1/2 108/1/2
f 108/1/2 107/1/2 109/1/2
f 109/1/2 110/1/2 111/1/2
f 111/1/2 110/1/2 112/1/2
f 113/2/2 114/2/2 116/2/2
f 114/3/2 115/3/2 117/3/2
f 116/2/2 114/2/2 117/2/2
f 117/3/2 115/3/2 118/3/2
f 118/3/2 119/3/2 120/3/2
f 120/3/2 119/3/2 121/3/2
f 121/3/2 122/3/2 125/3/2
f 125/3/2 122/3/2 126/3/2
f 123/1/2 124/1/2 128/1/2
f 128/1/2 124/1/2 129/1/2
f 126/3/2 127/3/2 130/3/2
f 130/3/2 127/3/2 131/3/2
f 131/3/2 132/3/2 133/3/2
f 133/3/2 132/3/2 134/3/2
f 134/3/2 135/3/2 136/3/2
f 136/3/2 135/3/2 137/3/2
f 137/3/2 138/3/2 140/3/2
f 140/3/2 138/3/2 141/3/2
f 139/3/2 140/3/2 143/3/2
f 143/3/2 140/3/2 144/3/2
f 142/3/2 143/3/2 148/3/2
f 148/3/2 143/3/2 149/3/2
f 145/1/2 146/1/2 150/1/2
f 150/1/2 146/1/2 151/1/2
f 147/3/2 148/3/2 153/3/2
f 153/3/2 148/3/2 154/3/2
f 152/3/2 153/3/2 156/3/2
f 156/3/2 153/3/2 157/3/2
f 155/3/2 156/3/2 160/3/2
f 160/3/2 156/3/2 161/3/2
f 158/2/2 159/2/2 162/2/2
f 159/3/2 160/3/2 163/3/2
f 162/2/2 159/2/2 163/2/2
f 163/3/2 160/3/2 164/3/2
f 165/1/2 166/1/2 168/1/2
f 168/1/2 166/1/2 169/1/2
f 169/1/2 166/1/2 170/1/2
f 167/1/2 168/1/2 171/1/2
f 168/1/2 169/1/2 171/1/2
f 171/1/2 169/1/2 172/1/2
f 167/1/2 171/1/2 173/1/2
f 167/1/2 173/1/2 175/1/2
f 173/1/2 174/1/2 175/1/2
f 175/1/2 174/1/2 176/1/2
f 176/1/2 174/1/2 177/1/2
f 176/1/2 177/1/2 179/1/2
f 177/1/2 178/1/2 179/1/2
f 179/1/2 178/1/2 180/1/2
f 185/1/3 182/1/3 181/1/3
f 186/1/3 182/1/3 185/1/3
f 187/1/3 182/1/3 186/1/3
f 190/1/3 184/1/3 183/1/3
f 191/1/3 184/1/3 190/1/3
f 192/1/3 184/1/3 191/1/3
f 194/1/3 187/1/3 186/1/3
f 195/2/3 188/2/3 187/2/3
f 195/1/3 187/1/3 194/1/3
f 196/2/3 188/2/3 195/2/3
f 197/2/3 190/2/3 189/2/3
f 198/1/3 191/1/3 190/1/3
f 198/2/3 190/2/3 197/2/3
f 199/1/3 191/1/3 198/1/3
f 201/1/3 194/1/3 193/1/3
f 201/1/3 200/1/3 199/1/3
f 201/1/3 199/1/3 198/1/3
f 201/1/3 198/1/3 197/1/3
f 201/1/3 197/1/3 196/1/3
f 201/1/3 195/1/3 194/1/3
f 201/1/3 196/1/3 195/1/3
f 202/1/3 200/1/3 201/1/3
f 207/1/3 204/1/3 203/1/3
f 208/1/3 204/1/3 207/1/3
f 211/1/3 206/1/3 205/1/3
f 212/1/3 206/1/3 211/1/3
f 214/1/3 209/1/3 208/1/3
f 215/1/3 209/1/3 214/1/3
f 216/1/3 211/1/3 210/1/3
f 217/1/3 211/1/3 216/1/3
f 219/1/3 214/1/3 213/1/3
f 220/1/3 214/1/3 219/1/3
f 221/1/3 218/1/3 217/1/3
f 222/1/3 218/1/3 221/1/3
f 229/2/3 224/2/3 223/2/3
f 230/1/3 225/1/3 224/1/3
f 230/2/3 224/2/3 229/2/3
f 231/1/3 225/1/3 230/1/3
f 232/1/3 227/1/3 226/1/3
f 233/2/3 228/2/3 227/2/3
f 233/1/3 227/1/3 232/1/3
f 234/2/3 228/2/3 233/2/3
f 239/3/3 236/3/3 235/3/3
f 240/3/3 236/3/3 239/3/3
f 241/3/3 238/3/3 237/3/3
f 242/3/3 238/3/3 241/3/3
f 247/3/3 244/3/3 243/3/3
f 248/3/3 244/3/3 247/3/3
f 249/3/3 246/3/3 245/3/3
f 250/3/3 246/3/3 249/3/3
f 255/3/3 252/3/3 251/3/3
f 256/3/3 252/3/3 255/3/3
f 257/3/3 254/3/3 253/3/3
f 258/3/3 254/3/3 257/3/3
f 263/3/3 260/3/3 259/3/3
f 264/3/3 260/3/3 263/3/3
f 265/3/3 262/3/3 261/3/3
f 266/3/3 262/3/3 265/3/3
f 271/3/3 268/3/3 267/3/3
f 272/3/3 268/3/3 271/3/3
f 273/3/3 270/3/3 269/3/3
f 274/3/3 270/3/3 273/3/3
f 277/3/3 276/3/3 275/3/3
f 278/3/3 276/3/3 277/3/3
f 279/1/4 280/1/4 283/1/4
f 283/1/4 280/1/4 284/1/4
f 284/1/4 280/1/4 285/1/4
f 281/1/4 282/1/4 288/1/4
f 288/1/4 282/1/4 289/1/4
f 289/1/4 282/1/4 290/1/4
f 284/1/4 285/1/4 292/1/4
f 285/2/4 286/2/4 293/2/4
f 292/1/4 285/1/4 293/1/4
f 293/2/4 286/2/4 294/2/4
f 287/2/4 288/2/4 295/2/4
f 288/1/4 289/1/4 296/1/4
f 295/2/4 288/2/4 296/2/4
f 296/1/4 289/1/4 297/1/4
f 291/1/4 292/1/4 299/1/4
f 297/1/4 298/1/4 299/1/4
f 296/1/4 297/1/4 299/1/4
f 295/1/4 296/1/4 299/1/4
f 294/1/4 295/1/4 299/1/4
f 292/1/4 293/1/4 299/1/4
f 293/1/4 294/1/4 299/1/4
f 299/1/4 298/1/4 300/1/4
f 301/1/4 302/1/4 305/1/4
f 303/1/4 304/1/4 308/1/4
f 305/1/4 306/1/4 309/1/4
f 301/1/4 305/1/4 309/1/4
f 309/1/4 306/1/4 310/1/4
f 307/1/4 308/1/4 311/1/4
f 308/1/4 304/1/4 312/1/4
f 311/1/4 308/1/4 312/1/4
f 301/1/4 309/1/4 313/1/4
f 313/1/4 309/1/4 314/1/4
f 312/1/4 304/1/4 315/1/4
f 315/1/4 304/1/4 316/1/4
f 317/1/4 318/1/4 321/1/4
f 319/1/4 320/1/4 322/1/4
f 321/1/4 318/1/4 323/1/4
f 319/1/4 322/1/4 324/1/4
f 323/1/4 318/1/4 325/1/4
f 325/1/4 318/1/4 326/1/4
f 319/1/4 324/1/4 327/1/4
f 327/1/4 324/1/4 328/1/4
f 329/3/4 330/3/4 333/3/4
f 333/3/4 330/3/4 334/3/4
f 331/3/4 332/3/4 335/3/4
f 335/3/4 332/3/4 336/3/4
f 337/3/4 338/3/4 341/3/4
f 341/3/4 338/3/4 342/3/4
f 339/3/4 340/3/4 343/3/4
f 343/3/4 340/3/4 344/3/4
f 345/3/4 346/3/4 349/3/4
f 349/3/4 346/3/4 350/3/4
f 347/3/4 348/3/4 351/3/4
f 351/3/4 348/3/4 352/3/4
f 353/3/4 354/3/4 357/3/4
f 357/3/4 354/3/4 358/3/4
f 355/3/4 356/3/4 359/3/4
f 359/3/4 356/3/4 360/3/4
f 361/3/4 362/3/4 365/3/4
f 365/3/4 362/3/4 366/3/4
f 363/3/4 364/3/4 367/3/4
f 367/3/4 364/3/4 368/3/4
f 369/3/4 370/3/4 373/3/4
f 373/3/4 370/3/4 374/3/4
f 371/3/4 372/3/4 375/3/4
f 375/3/4 372/3/4 376/3/4
f 377/3/4 378/3/4 379/3/4
f 379/3/4 378/3/4 380/3/4
f 383/2/5 382/2/5 381/2/5
f 384/2/5 382/2/5 383/2/5
f 385/3/5 384/3/5 383/3/5
f 386/3/5 384/3/5 385/3/5
f 391/1/5 388/1/5 387/1/5
f 392/1/5 390/1/5 389/1/5
f 393/1/5 391/1/5 387/1/5
f 394/1/5 391/1/5 393/1/5
f 395/1/5 390/1/5 392/1/5
f 396/1/5 390/1/5 395/1/5
f 399/3/5 398/3/5 397/3/5
f 400/3/5 398/3/5 399/3/5
f 405/1/5 402/1/5 401/1/5
f 406/1/5 402/1/5 405/1/5
f 407/1/5 404/1/5 403/1/5
f 408/1/5 404/1/5 407/1/5
f 409/1/5 407/1/5 406/1/5
f 410/1/5 407/1/5 409/1/5
f 413/3/5 412/3/5 411/3/5
f 414/3/5 412/3/5 413/3/5
f 417/3/5 416/3/5 415/3/5
f 418/3/5 416/3/5 417/3/5
f 421/1/5 420/1/5 419/1/5
f 422/1/5 420/1/5 421/1/5
f 425/3/5 424/3/5 423/3/5
f 426/3/5 424/3/5 425/3/5
f 429/3/5 428/3/5 427/3/5
f 430/3/5 428/3/5 429/3/5
f 433/3/5 432/3/5 431/3/5
f 434/3/5 432/3/5 433/3/5
f 437/2/5 436/2/5 435/2/5
f 438/2/5 436/2/5 437/2/5
f 441/3/5 440/3/5 439/3/5
f 442/3/5 440/3/5 441/3/5
f 445/1/5 444/1/5 443/1/5
f 446/1/5 444/1/5 445/1/5
f 449/3/5 448/3/5 447/3/5
f 450/3/5 448/3/5 449/3/5
f 453/1/5 452/1/5 451/1/5
f 454/1/5 452/1/5 453/1/5
f 457/3/5 456/3/5 455/3/5
f 458/3/5 456/3/5 457/3/5
f 463/1/5 460/1/5 459/1/5
f 464/1/5 460/1/5 463/1/5
f 465/1/5 462/1/5 461/1/5
f 466/1/5 462/1/5 465/1/5
f 469/3/5 468/3/5 467/3/5
f 470/3/5 468/3/5 469/3/5
f 473/1/5 472/1/5 471/1/5
f 474/1/5 472/1/5 473/1/5
f 477/3/5 476/3/5 475/3/5
f 478/3/5 476/3/5 477/3/5
f 481/3/5 480/3/5 479/3/5
f 482/3/5 480/3/5 481/3/5
f 483/3/6 484/3/6 485/3/6
f 485/3/6 484/3/6 486/3/6
f 487/1/6 488/1/6 489/1/6
f 489/1/6 488/1/6 490/1/6
f 491/3/6 492/3/6 493/3/6
f 493/3/6 492/3/6 494/3/6
f 495/1/6 496/1/6 499/1/6
f 499/1/6 496/1/6 500/1/6
f 497/1/6 498/1/6 501/1/6
f 501/1/6 498/1/6 502/1/6
f 503/3/6 504/3/6 505/3/6
f 505/3/6 504/3/6 506/3/6
f 507/1/6 508/1/6 509/1/6
f 509/1/6 508/1/6 510/1/6
f 511/3/6 512/3/6 513/3/6
f 513/3/6 512/3/6 514/3/6
f 515/1/6 516/1/6 517/1/6
f 517/1/6 516/1/6 518/1/6
f 519/3/6 520/3/6 521/3/6
f 521/3/6 520/3/6 522/3/6
f 523/2/6 524/2/6 525/2/6
f 525/2/6 524/2/6 526/2/6
f 527/3/6 528/3/6 529/3/6
f 529/3/6 528/3/6 530/3/6
f 531/3/6 532/3/6 533/3/6
f 533/3/6 532/3/6 534/3/6
f 535/3/6 536/3/6 537/3/6
f 537/3/6 536/3/6 538/3/6
f 539/1/6 540/1/6 541/1/6
f 541/1/6 540/1/6 542/1/6
f 543/3/6 544/3/6 545/3/6
f 545/3/6 544/3/6 546/3/6
f 547/3/6 548/3/6 549/3/6
f 549/3/6 548/3/6 550/3/6
f 551/1/6 552/1/6 555/1/6
f 555/1/6 552/1/6 556/1/6
f 553/1/6 554/1/6 557/1/6
f 557/1/6 554/1/6 558/1/6
f 556/1/6 557/1/6 559/1/6
f 559/1/6 557/1/6 560/1/6
f 561/3/6 562/3/6 563/3/6
f 563/3/6 562/3/6 564/3/6
f 565/1/6 566/1/6 569/1/6
f 567/1/6 568/1/6 570/1/6
f 565/1/6 569/1/6 571/1/6
f 571/1/6 569/1/6 572/1/6
f 570/1/6 568/1/6 573/1/6
f 573/1/6 568/1/6 574/1/6
f 575/3/6 576/3/6 577/3/6
f 577/3/6 576/3/6 578/3/6
f 579/2/6 580/2/6 581/2/6
f 581/2/6 580/2/6 582/2/6
f 581/3/6 582/3/6 583/3/6
f 583/3/6 582/3/6 584/3/6
